<?xml version="1.0" encoding="iso-8859-1"?>
<!-- Generator: Adobe Illustrator 19.0.0, SVG Export Plug-In . SVG Version: 6.00 Build 0)  -->
<svg version="1.1" id="Layer_1" xmlns="http://www.w3.org/2000/svg" xmlns:xlink="http://www.w3.org/1999/xlink" x="0px" y="0px"
	 viewBox="0 0 354 354" style="enable-background:new 0 0 354 354;" xml:space="preserve">
<g>
	<g>
		<g>
			<path d="M0,241.045c0,29.54,24.03,53.58,53.58,53.58h66.17c16.13,0,29.25-13.12,29.25-29.25v-36.75H0V241.045z"/>
			<path d="M234.25,294.625h66.16c29.55,0,53.59-24.04,53.59-53.58v-12.42H205v36.75C205,281.505,218.12,294.625,234.25,294.625z"/>
			<polygon points="354,212.625 354,200.625 205,200.625 194,200.625 160,200.625 149,200.625 0,200.625 0,212.625 149,212.625 
				149,228.625 205,228.625 205,212.625 			"/>
			<path d="M114.25,86.685v30.44c0,4.42,3.58,8,8,8s8-3.58,8-8v-49.75c0-3.24-1.95-6.15-4.94-7.39s-6.43-0.55-8.72,1.73L9.305,169
				h22.629L114.25,86.685z"/>
			<path d="M231.75,125.125c4.42,0,8-3.58,8-8v-30.44L322.057,169h22.638L237.41,61.715c-2.29-2.28-5.73-2.97-8.72-1.73
				s-4.94,4.15-4.94,7.39v49.75C223.75,121.545,227.33,125.125,231.75,125.125z"/>
		</g>
	</g>
</g>
<g>
</g>
<g>
</g>
<g>
</g>
<g>
</g>
<g>
</g>
<g>
</g>
<g>
</g>
<g>
</g>
<g>
</g>
<g>
</g>
<g>
</g>
<g>
</g>
<g>
</g>
<g>
</g>
<g>
</g>
</svg>
